<svg xmlns="http://www.w3.org/2000/svg" width="50" height="50" viewBox="0 0 50 50">
    <g transform="translate(-1822 -320)">
        <circle data-name="타원 2" cx="25" cy="25" r="25" transform="translate(1822 320)" style="fill:#cfd8e6"/>
        <path data-name="제외 1" d="M13.371 22.5a.723.723 0 0 1-.627-.362.772.772 0 0 1-.068-.1l-2.151-3.5h-6.3A4.234 4.234 0 0 1 0 14.3V4.24A4.236 4.236 0 0 1 4.223 0h18.294a4.237 4.237 0 0 1 4.225 4.24V14.3a4.236 4.236 0 0 1-4.225 4.237h-6.3l-2.149 3.5a.546.546 0 0 1-.073.106.725.725 0 0 1-.624.357zm7.429-9.215v1.449h.638a2.375 2.375 0 0 0 2.392-2.556V7.553h-1.592v.464a1.782 1.782 0 0 0-1.375-.624h-.034A2.259 2.259 0 0 0 18.548 9.9a2.9 2.9 0 0 0 .7 1.845 2.093 2.093 0 0 0 1.552.584h.026a1.859 1.859 0 0 0 1.412-.624v.381a1.324 1.324 0 0 1-.269.9 1 1 0 0 1-.773.3zm-5.846-5.892c-.027 0-2.706.029-2.706 2.524a2.644 2.644 0 0 0 .675 1.762 2.706 2.706 0 0 0 2.031.733c.028 0 2.768-.028 2.768-2.495a2.662 2.662 0 0 0-.68-1.773 2.779 2.779 0 0 0-2.088-.751zm-10.39 4.312a1.6 1.6 0 0 0 1.375.7 2.423 2.423 0 0 0 2.307-2.544c0-.025-.106-2.491-2.306-2.491a2.2 2.2 0 0 0-1.395.647v-2.6H2.911v6.823h1.653v-.534zm4.214-4.861c.076 0 .74.038.74 1.36v4.036H11.1V7.829a3.027 3.027 0 0 0-.708-1.954 2.162 2.162 0 0 0-1.616-.613v1.582zm12.482 4.124a1.051 1.051 0 1 1 1.051-1.051 1.053 1.053 0 0 1-1.051 1.051zm-6.3 0a1.051 1.051 0 1 1 1.051-1.051 1.052 1.052 0 0 1-1.055 1.051zm-9.376 0a1.051 1.051 0 1 1 1.047-1.051 1.052 1.052 0 0 1-1.052 1.051z" transform="translate(1833.875 335)" style="fill:#fff;stroke:transparent;stroke-miterlimit:10"/>
    </g>
</svg>
