<svg xmlns="http://www.w3.org/2000/svg" width="168" height="50" viewBox="0 0 168 50">
    <defs>
        <clipPath id="sveisanr9a">
            <path data-name="사각형 14249" style="fill:none" d="M0 0h167.637v50H0z"/>
        </clipPath>
        <clipPath id="yll40m374b">
            <path data-name="패스 10416" d="m24.168 34.913 2.321 4.715h-7.035zm64.546-17.082A2.769 2.769 0 0 1 91.23 13.9a2.716 2.716 0 0 1 1.777.647 2.767 2.767 0 0 1 1 2.126 2.7 2.7 0 0 1-.123.822v.005a2.775 2.775 0 0 1-5.166.329M50.31 7.5a2.814 2.814 0 0 1-2.01-2.364c0-.1-.01-.206-.01-.308a2.773 2.773 0 0 1 5.187-1.366 2.666 2.666 0 0 1 .37 1.366A2.791 2.791 0 0 1 53.2 6.6a2.784 2.784 0 0 1-2.14 1 2.587 2.587 0 0 1-.75-.1m.75-7.5a4.835 4.835 0 0 0-4.827 4.828 4.731 4.731 0 0 0 .442 2.013L27.167 27.3 17.379 7.4 0 42.709h6.717l10.652-21.631 5.351 10.888-10.6 10.743h22.617L28.605 30.25 48.788 9.081a4.713 4.713 0 0 0 2.27.575 4.83 4.83 0 0 0 4.179-2.412L86.422 17.1a4.824 4.824 0 0 0 9.623-.186l26.255-6.97a4.825 4.825 0 1 0-.792-2.979L95.216 13.96a4.8 4.8 0 0 0-8.063.154l-31.294-9.9A4.837 4.837 0 0 0 51.06 0z" style="fill:none"/>
        </clipPath>
        <linearGradient id="bv0gv3gbpc" y1="1.171" x2="1" y2="1.158" gradientUnits="objectBoundingBox">
            <stop offset="0" stop-color="#0085cc"/>
            <stop offset="1" stop-color="#003580"/>
        </linearGradient>
    </defs>
    <g data-name="그룹 19904">
        <path data-name="사각형 14260" style="fill:none" d="M0 0h168v50H0z"/>
        <g data-name="그룹 19907">
            <g data-name="그룹 19892" style="clip-path:url(#sveisanr9a)">
                <path data-name="패스 10411" d="M301.825 118.087a6.864 6.864 0 0 0-.9-.349 6.335 6.335 0 0 0 2.352-2.126 6.085 6.085 0 0 0 .945-3.461 5.706 5.706 0 0 0-2.393-4.817c-1.6-1.191-3.913-1.8-6.933-1.8h-11.949v25.421h12.674c3.266 0 5.721-.606 7.385-1.818a5.947 5.947 0 0 0 2.486-5.084 6.6 6.6 0 0 0-.976-3.7 6.2 6.2 0 0 0-2.691-2.27m-14.164-8.843h6.687a6.846 6.846 0 0 1 3.769.873 2.914 2.914 0 0 1 1.346 2.65 2.879 2.879 0 0 1-1.346 2.609 6.845 6.845 0 0 1-3.769.873h-6.687zm11.7 17.132a7.7 7.7 0 0 1-4.037.873h-7.662v-7.334h7.662a7.588 7.588 0 0 1 4.037.894 3.457 3.457 0 0 1 0 5.567" transform="translate(-236.602 -88.25)" style="fill:#003277"/>
                <path data-name="패스 10412" d="M453.489 143.889v-2.821h-4.32v19.387h4.5v-9.367a6.084 6.084 0 0 1 1.525-4.538 5.67 5.67 0 0 1 4.138-1.489 6.773 6.773 0 0 1 .981.073v-4.321a9.479 9.479 0 0 0-4.611 1.035 6.032 6.032 0 0 0-2.215 2.04" transform="translate(-375.597 -117.749)" style="fill:#003277"/>
                <path data-name="사각형 14248" transform="translate(88.82 23.319)" style="fill:#003277" d="M0 0h4.502v19.387H0z"/>
                <path data-name="패스 10413" d="M612.371 106.137a7.026 7.026 0 0 0-1.849-1.51 8.789 8.789 0 0 0-4.365-1.078 10.117 10.117 0 0 0-5.023 1.243 8.853 8.853 0 0 0-3.5 3.482 11.409 11.409 0 0 0 0 10.477 8.868 8.868 0 0 0 3.5 3.461 10.221 10.221 0 0 0 5.023 1.233 8.853 8.853 0 0 0 4.447-1.068 6.862 6.862 0 0 0 2.023-1.756v2.579h4.314V96.256h-4.571zm-.678 10.579a5.376 5.376 0 0 1-2.065 2.136 5.7 5.7 0 0 1-2.927.75 5.636 5.636 0 0 1-2.917-.75 5.469 5.469 0 0 1-2.075-2.136 6.563 6.563 0 0 1-.781-3.215 6.451 6.451 0 0 1 .781-3.215 5.6 5.6 0 0 1 2.075-2.106 5.729 5.729 0 0 1 2.917-.74 5.794 5.794 0 0 1 2.927.74 5.5 5.5 0 0 1 2.065 2.106 6.345 6.345 0 0 1 .781 3.215 6.452 6.452 0 0 1-.781 3.215" transform="translate(-498.677 -80.49)" style="fill:#003277"/>
                <path data-name="패스 10414" d="M765.136 143.613a7.085 7.085 0 0 0-2.27-1.828 9.735 9.735 0 0 0-4.447-1.007 10.553 10.553 0 0 0-5.012 1.171 8.752 8.752 0 0 0-3.5 3.276 9.351 9.351 0 0 0-1.294 4.961 9.182 9.182 0 0 0 1.294 4.9 8.922 8.922 0 0 0 3.5 3.287 10.44 10.44 0 0 0 5.012 1.181 9.61 9.61 0 0 0 4.447-1.017 7.176 7.176 0 0 0 2.044-1.592v1.048a6.036 6.036 0 0 1-1.479 4.447 6.433 6.433 0 0 1-4.653 1.469 12.209 12.209 0 0 1-4-.657 9.816 9.816 0 0 1-3.194-1.705l-2.034 3.379a11.3 11.3 0 0 0 4.191 2.085 19.376 19.376 0 0 0 5.249.709q5.084 0 7.775-2.486t2.681-7.755v-16.444h-4.314zm-.894 9.419a5.125 5.125 0 0 1-2.085 1.962 6.425 6.425 0 0 1-3.051.709 6.568 6.568 0 0 1-3.071-.709 5.116 5.116 0 0 1-2.106-1.962 5.465 5.465 0 0 1-.74-2.845 5.559 5.559 0 0 1 .74-2.907 5.091 5.091 0 0 1 2.106-1.921 6.688 6.688 0 0 1 3.071-.688 6.542 6.542 0 0 1 3.051.688 5.1 5.1 0 0 1 2.085 1.921 5.564 5.564 0 0 1 .75 2.907 5.472 5.472 0 0 1-.75 2.845" transform="translate(-625.991 -117.719)" style="fill:#003277"/>
                <path data-name="패스 10415" d="M917.5 142.094a9.986 9.986 0 0 0-5.043-1.253 10.243 10.243 0 0 0-5.177 1.284 9.365 9.365 0 0 0-3.554 3.523 10.066 10.066 0 0 0-1.294 5.136 9.858 9.858 0 0 0 1.325 5.135 9.375 9.375 0 0 0 3.739 3.523 11.791 11.791 0 0 0 5.649 1.294 11.942 11.942 0 0 0 4.519-.8 8.7 8.7 0 0 0 3.318-2.321l-2.465-2.835a6.845 6.845 0 0 1-2.321 1.592 7.449 7.449 0 0 1-2.937.544 7.346 7.346 0 0 1-3.379-.74 5.363 5.363 0 0 1-2.239-2.085 5.888 5.888 0 0 1-.657-1.859h15.2c.021-.185.041-.411.051-.668s.02-.462.02-.637a10.608 10.608 0 0 0-1.273-5.331 8.987 8.987 0 0 0-3.482-3.5m-10.559 7.128a5.923 5.923 0 0 1 .616-1.962 4.781 4.781 0 0 1 1.972-2.013 6 6 0 0 1 2.927-.709 5.778 5.778 0 0 1 2.907.709 5.1 5.1 0 0 1 1.941 1.993 5.653 5.653 0 0 1 .616 1.982z" transform="translate(-754.617 -117.772)" style="fill:#003277"/>
            </g>
            <g data-name="그룹 19894" style="clip-path:url(#yll40m374b)">
                <path data-name="사각형 14250" style="fill:url(#bv0gv3gbpc)" d="M0 0h131.154v42.709H0z"/>
            </g>
        </g>
    </g>
</svg>
