<svg xmlns="http://www.w3.org/2000/svg" width="50" height="50" viewBox="0 0 50 50">
    <g transform="translate(-1870 -320)">
        <circle data-name="타원 148" cx="25" cy="25" r="25" transform="translate(1870 320)" style="fill:#cfd8e6"/>
        <g data-name="그룹 10289">
            <g data-name="그룹 10286">
                <path data-name="패스 10399" d="M-179.96 1.141h-9.692a6.411 6.411 0 0 1-6.4-6.4v-9.693a6.411 6.411 0 0 1 6.4-6.4h9.692a6.411 6.411 0 0 1 6.4 6.4v9.693a6.411 6.411 0 0 1-6.4 6.4zm-9.692-20.571a4.48 4.48 0 0 0-4.475 4.475v9.693a4.48 4.48 0 0 0 4.475 4.475h9.692a4.48 4.48 0 0 0 4.475-4.475v-9.693a4.48 4.48 0 0 0-4.475-4.475z" transform="translate(2079.806 355.109)" style="fill:#fff"/>
            </g>
            <g data-name="그룹 10287">
                <path data-name="패스 10400" d="M-151.787 28.671a5.767 5.767 0 0 1-5.761-5.761 5.768 5.768 0 0 1 5.761-5.761 5.768 5.768 0 0 1 5.761 5.761 5.768 5.768 0 0 1-5.761 5.761zm0-9.593a3.837 3.837 0 0 0-3.833 3.833 3.837 3.837 0 0 0 3.833 3.832 3.837 3.837 0 0 0 3.832-3.832 3.837 3.837 0 0 0-3.832-3.834z" transform="translate(2046.787 322.09)" style="fill:#fff"/>
            </g>
            <g data-name="그룹 10288">
                <path data-name="패스 10401" d="M-81.927 6.507a1.385 1.385 0 0 1-1.384 1.385A1.385 1.385 0 0 1-84.7 6.507a1.385 1.385 0 0 1 1.385-1.385 1.385 1.385 0 0 1 1.388 1.385z" transform="translate(1984.32 332.403)" style="fill:#fff"/>
            </g>
        </g>
    </g>
</svg>
