<svg xmlns="http://www.w3.org/2000/svg" width="60" height="60" viewBox="0 0 60 60">
    <defs>
        <clipPath id="xk8yag00ua">
            <path data-name="사각형 10454" style="fill:none" d="M0 0h32.148v34H0z"/>
        </clipPath>
    </defs>
    <g transform="translate(-1860 -660)">
        <circle data-name="타원 3" cx="30" cy="30" r="30" transform="translate(1860 660)" style="fill:#ffcf00"/>
        <g data-name="그룹 11458">
            <g data-name="그룹 11457" style="clip-path:url(#xk8yag00ua)" transform="translate(1873.981 674.5)">
                <path data-name="패스 10411" d="M16.074 0C7.2 0 0 6.657 0 14.868c0 6.065 2.54 8.96 6.019 11.6l.017.007v7.117a.409.409 0 0 0 .653.328l6.1-4.528.131.057a17.423 17.423 0 0 0 3.159.288c8.877 0 16.074-6.657 16.074-14.868S24.951 0 16.074 0m-5.388 18.635a3.356 3.356 0 0 0 3.328-2.4h2.331a5.577 5.577 0 0 1-5.659 4.642 5.911 5.911 0 0 1-6.057-6.026 5.911 5.911 0 0 1 6.057-6.026 5.584 5.584 0 0 1 5.677 4.728h-2.325a3.315 3.315 0 0 0-3.352-2.518A3.639 3.639 0 0 0 6.9 14.851a3.732 3.732 0 0 0 3.783 3.784m15.356 2.011h-2.133v-4.818a1.533 1.533 0 0 0-1.639-1.705c-1.109 0-1.821.679-1.821 2.053v4.47H18.31V8.862h2.136v4.432a2.739 2.739 0 0 1 2.467-1.159 2.933 2.933 0 0 1 2.235.91 3.438 3.438 0 0 1 .894 2.517z" style="fill:#1a1818"/>
            </g>
        </g>
    </g>
</svg>
